<?xml version="1.0" encoding="UTF-8"?>
<svg width="224px" height="45px" viewBox="0 0 224 45" version="1.1" xmlns="http://www.w3.org/2000/svg" xmlns:xlink="http://www.w3.org/1999/xlink">
    <!-- Generator: Sketch 56.2 (81672) - https://sketch.com -->
    <title>PFC_GrayWordMark_4c</title>
    <desc>Created with Sketch.</desc>
    <g id="homepage" stroke="none" stroke-width="1" fill="none" fill-rule="evenodd">
        <g id="Homepage---usability" transform="translate(-771.000000, -2631.000000)" fill="#000E4B" fill-rule="nonzero">
            <g id="PFC_GrayWordMark_4c" transform="translate(770.000000, 2630.000000)">
                <path d="M160.06,2.43 C160.028086,2.51995851 160.011194,2.61455576 160.01,2.71 C160.01,2.71 160.01,22.93 160.01,27.54 C155.94,21.54 151.42,14.94 147.01,8.6 C146.999236,8.57296851 146.982079,8.5489493 146.96,8.53 C146.652309,8.1749613 146.19938,7.97979686 145.73,8 C144.972503,8.10385223 144.290031,8.51189116 143.84,9.13 C143.718829,9.28794837 143.65216,9.48093872 143.65,9.68 L143.65,35.24 C143.652155,35.3599205 143.675866,35.4784753 143.72,35.59 L143.79,35.76 C143.914575,36.2665944 144.252809,36.6942228 144.717095,36.9321212 C145.18138,37.1700196 145.726041,37.194784 146.21,37 C146.272648,36.9890544 146.333314,36.9688322 146.39,36.94 C146.972313,36.6192274 147.416982,36.0962956 147.64,35.47 C147.680052,35.3646059 147.70039,35.2527473 147.7,35.14 L147.7,16.92 L148.52,18.19 C152.52,24.41 156.73,30.84 160.71,36.66 C160.828882,36.8288923 161.001681,36.95232 161.2,37.01 C161.94487,37.2258136 162.746028,37.1206843 163.41,36.72 C163.856968,36.4212856 164.143952,35.9356217 164.19,35.4 C164.194853,35.3701963 164.194853,35.3398037 164.19,35.31 L164.19,3 C164.199705,2.90691896 164.199705,2.81308104 164.19,2.72 C163.946598,1.74175985 163.087223,1.04122671 162.08,1 C161.162429,0.970591044 160.337181,1.55480141 160.06,2.43 Z" id="Path"></path>
                <path d="M110.5,1.37 L110.62,1.37 C109.883074,1.40327465 109.241043,1.8828165 109,2.58 C108.940617,2.70497785 108.90987,2.84163165 108.91,2.98 C108.91,2.98 108.91,27.48 108.91,29.13 L96.47,29.13 L96.47,9.65 C96.4697166,9.47540287 96.4175024,9.30483622 96.32,9.16 L95.77,8.34 C95.638878,8.16309721 95.4461989,8.04178071 95.23,8 C93.23,7.67 92.73,8.61 92.59,9.2 C92.5796062,9.27296504 92.5796062,9.34703496 92.59,9.42 C92.59,9.42 92.59,27.56 92.59,29.14 L90.23,29.14 L90.16,29.14 C89.6376891,29.1862032 89.1674047,29.4750393 88.89,29.92 C88.6680462,30.2841221 88.5536403,30.7036105 88.56,31.13 C88.5576905,31.4053732 88.6016347,31.6791796 88.69,31.94 C88.710835,32.0152948 88.7446782,32.0863655 88.79,32.15 C89.52,33.25 90.86,33.15 91.79,33.15 C92.02,33.15 92.26,33.15 92.48,33.15 C92.48,33.31 92.48,33.48 92.48,33.65 C92.48,33.82 92.48,34.18 92.48,34.45 C92.4261426,35.0904282 92.6113908,35.7281095 93,36.24 C93.3557598,36.6268248 93.8545327,36.8509113 94.38,36.86 L94.62,36.86 C96.43,36.46 96.43,34.71 96.43,33.67 C96.43,33.52 96.43,33.37 96.43,33.22 L108.89,33.22 L108.89,35.37 C108.880309,35.4664238 108.880309,35.5635762 108.89,35.66 C109.229782,36.5096502 110.102873,37.0203264 111.01,36.9 C111.699728,36.9208628 112.323213,36.4917109 112.55,35.84 L112.62,35.69 C112.68212,35.5620032 112.716213,35.4222243 112.72,35.28 L112.72,3.07 C112.725556,3.02349872 112.725556,2.97650128 112.72,2.93 C112.499803,1.91079754 111.533517,1.23178571 110.5,1.37 Z" id="Path"></path>
                <path d="M76.86,4.35 L76.79,4.35 C70.37,7.48 61.65,12.75 60.04,22.35 C60.0357057,22.3764938 60.0357057,22.4035062 60.04,22.43 C59.5284811,27.2670425 61.6605201,32.0049069 65.62,34.83 C70.81,38.05 77.56,37.46 83.71,33.28 L83.84,33.18 C84.1487914,32.8750321 84.4833704,32.5973315 84.84,32.35 C85.9551952,31.7655432 86.7616115,30.7255946 87.05,29.5 C87.0701681,29.4111299 87.0701681,29.3188701 87.05,29.23 C86.9243326,28.1600195 85.9737222,27.3818454 84.9,27.47 C84.7098086,27.4692419 84.5242661,27.5287556 84.37,27.64 L83.85,28.04 C81.9026196,29.6801231 79.6957891,30.9846201 77.32,31.9 C73.97,33.22 69.21,33.25 66.55,30.23 L66.48,30.16 C64.854198,28.4812677 63.99622,26.2041869 64.11,23.87 C64.1050751,22.5604996 64.3319053,21.2604579 64.78,20.03 C68.67,12.62 77.04,7.29 86.27,6.23 C86.2653215,6.24972639 86.2653215,6.27027361 86.27,6.29 C86.27,6.44 86.27,6.62 86.27,6.82 C86.240921,7.41216254 86.4623146,7.98923766 86.88,8.41 L86.95,8.47 C87.6455763,8.96390401 88.5498195,9.0550882 89.33,8.71 C89.5372637,8.64200485 89.7118872,8.49945504 89.82,8.31 C90.65,6.86 90.36,3.88 90.3,3.31 C90.258983,3.11437433 90.1533088,2.93825057 90,2.81 L89.55,2.36 C89.4062407,2.2237479 89.2252573,2.13325617 89.03,2.1 C84.88,1.62 80.55,3 76.86,4.35 Z" id="Path"></path>
                <path d="M196.61,3 L196.74,3 C195.924207,3.05429027 195.214088,3.57712557 194.92,4.34 C194.79418,4.61980692 194.729409,4.92320657 194.729996,5.23 C194.759291,5.95673354 195.06726,6.64429059 195.59,7.15 C195.43,7.62 195.08,8.61 195.08,8.61 C195.065332,8.67585984 195.065332,8.74414016 195.08,8.81 C195.078813,8.98678323 195.15565,9.1550923 195.29,9.27 C195.476754,9.43106881 195.743986,9.45898857 195.96,9.34 L197.66,8.41 L197.74,8.41 C198.997354,7.62842308 199.613623,6.13004329 199.27,4.69 C199.274336,4.67023502 199.274336,4.64976498 199.27,4.63 C198.920072,3.49453251 197.780567,2.7962646 196.61,3 L196.61,3 Z" id="Path"></path>
                <path d="M49.27,7.16997268 L31.93,7.16997268 C31.7207807,7.16833296 31.5181292,7.24299403 31.36,7.38 L30.72,8 C30.5200134,8.16446072 30.4058931,8.41110795 30.4098928,8.67 L30.4098928,43.29 C30.4102834,43.4645971 30.4624976,43.6351638 30.56,43.78 L30.92,44.32 C30.9878236,44.4175202 31.0724798,44.5021764 31.17,44.57 C31.8770537,44.9711943 32.7429463,44.9711943 33.45,44.57 C34.0459651,44.2955407 34.4338679,43.7059284 34.45,43.05 C34.45,43.05 34.45,25.45 34.45,21.32 L44.45,21.32 C44.7684731,21.2694442 45.0531984,21.0928425 45.24,20.83 L45.09,21.03 C45.6233601,20.6876217 45.986715,20.1353224 46.09,19.51 C46.0948254,19.4534361 46.0948254,19.3965639 46.09,19.34 L46.09,19.22 C46.0617433,18.1119454 45.1957391,17.206971 44.09,17.13 L34.48,17.13 C34.48,15.95 34.48,12.57 34.48,11.38 L49.21,11.38 C49.6559611,11.3833028 50.0805726,11.1892992 50.37,10.85 C50.6924926,10.4525595 50.8595298,9.95144797 50.84,9.44 C50.8499396,9.29350174 50.8499396,9.14649826 50.84,9 C50.8193184,8.90833383 50.7925933,8.81813677 50.76,8.73 L50.66,8.51 C50.5163311,8.01081274 50.1919179,7.5830151 49.75,7.31 C49.6066651,7.21842491 49.4400907,7.16997268 49.27,7.16997268 L49.27,7.16997268 Z" id="Path"></path>
                <path d="M189.74,8.23 C181.41,9.44 174.97,12.35 170.57,16.92 C166.65,21.2 165.22,26.14 166.64,30.5 C167.656144,33.4846319 170.009017,35.8227061 173,36.82 C176.489813,38.0762348 180.377102,37.4978363 183.35,35.28 C183.35,37.55 183.35,44.07 183.35,44.07 C183.345322,44.1165494 183.345322,44.1634506 183.35,44.21 C183.35,44.27 183.35,44.33 183.4,44.39 C183.624423,45.2003592 184.331749,45.783803 185.17,45.85 L185.26,45.85 C185.96,45.85 187.26,45.17 187.26,44.06 L187.26,28.85 C187.261343,28.7436568 187.240925,28.6381623 187.2,28.54 L186.93,27.81 C186.881246,27.693132 186.813686,27.5850353 186.73,27.49 C186.017861,26.9191743 185.040422,26.8101373 184.22,27.21 C183.979216,27.3013898 183.792065,27.4958807 183.71,27.74 C182.71,30.62 181.39,32.24 179.45,32.85 C176.737484,33.7996941 173.719988,33.0404025 171.78,30.92 C170.862743,29.7392675 170.388565,28.2742706 170.44,26.78 C170.436015,25.8291195 170.598466,24.8848772 170.92,23.99 C173.44,18.13 179.79,13.99 188.36,12.61 C188.385377,13.1298341 188.570454,13.6291936 188.89,14.04 C189.615872,14.8490981 190.839198,14.9705631 191.71,14.32 C191.835212,14.24318 191.935837,14.1321457 192,14 C192.463796,12.9603339 192.569315,11.7961111 192.3,10.69 C192.3,10.69 192.21,10 192.2,10 C192.118184,9.47431029 191.830289,9.00288234 191.4,8.69 C190.928105,8.3255005 190.332196,8.16036903 189.74,8.23 Z" id="Path"></path>
                <path d="M206.42,9.26 C206.337784,9.30824032 206.263565,9.36896497 206.2,9.44 L197.8,18.94 C197.738654,19.0086382 197.688079,19.0861875 197.65,19.17 C197.38021,19.7501693 197.38021,20.4198307 197.65,21 C197.909582,21.5732597 198.40026,22.0094183 199,22.2 C199.15125,22.2357458 199.30875,22.2357458 199.46,22.2 C203.69,21.09 208.16,20.28 212.24,21.7 C214.67,22.93 215.82,24.33 215.82,26.1 C215.82,26.2 215.82,26.3 215.82,26.41 C215.82,29.28 213.15,31.06 212.31,31.55 C208.31,33.75 202.39,33.63 197.91,31.26 C197.86738,31.2316345 197.819933,31.2113001 197.77,31.2 C197.277515,30.9948882 196.821586,30.7111996 196.42,30.36 C195.52,29.67 194.42,28.81 192.82,29.36 C192.639218,29.4305332 192.482863,29.5521423 192.37,29.71 C192.031641,30.1677135 191.830478,30.7122411 191.79,31.28 C191.792222,31.7965279 192.031931,32.2833211 192.44,32.6 C194.301548,34.1400944 196.439749,35.3110139 198.74,36.05 C200.317672,36.6625256 201.980741,37.0268491 203.67,37.13 L204.96,37.28 L205.04,37.28 C211.92,37.61 217.4,34.65 219.69,29.35 C219.694129,29.3134496 219.694129,29.2765504 219.69,29.24 C220.535009,26.842518 220.282663,24.1947067 219,22 C216.08,17.77 210.22,16.48 205.57,17 C205.48,17 205.4,16.92 205.31,16.93 L205.16,16.93 L209.51,11.88 C209.609238,11.7733481 209.678272,11.6421838 209.71,11.5 C209.765554,11.2403968 209.792382,10.9754702 209.79,10.71 C209.854602,10.0633764 209.601014,9.42567712 209.11,9 C208.46,8.53 207.56,8.61 206.42,9.26 Z" id="Shape"></path>
                <path d="M126.63,8.57 C126.558702,8.65193286 126.498208,8.74267338 126.45,8.84 L117.31,29.59 C117.31,29.59 116.69,30.93 116.69,30.93 C115.94938,32.246088 115.483322,33.69869 115.32,35.2 C115.306845,35.3764571 115.352563,35.5522967 115.45,35.7 C115.729999,36.3771189 116.377893,36.8298638 117.11,36.86 C118.92,36.78 119.56,35.22 119.98,34.19 C120.06,33.98 120.15,33.78 120.23,33.6 C122.91,33.6 133.23,33.67 135.85,33.6 C135.981742,33.8632332 136.098593,34.1336592 136.2,34.41 C136.6,35.47 137.2,36.92 139.01,37.01 C139.147699,37.0142995 139.284547,36.9869299 139.41,36.93 C140.015074,36.7079884 140.500522,36.2442763 140.75,35.65 C140.81713,35.4571212 140.850946,35.2542248 140.85,35.05 C140.810805,34.492573 140.643093,33.9517878 140.36,33.47 C140.341343,33.4376996 140.324646,33.4043059 140.31,33.37 L140.87,33.37 C141.300986,33.2963008 141.685491,33.055536 141.94,32.7 C142.199336,32.320228 142.335501,31.8698389 142.33,31.41 C142.344784,31.2670479 142.344784,31.1229521 142.33,30.98 C142.31858,30.8957002 142.291444,30.8142916 142.25,30.74 C141.66,29.54 140.39,29.59 139.46,29.62 C139.206905,29.6355415 138.953095,29.6355415 138.7,29.62 L130,9.4 C129.977279,9.34799356 129.950531,9.29784107 129.92,9.25 C129.513678,8.59825508 128.854162,8.14529073 128.1,8 C127.548425,7.95388176 127.0063,8.16409316 126.63,8.57 L126.63,8.57 Z M127.91,15.57 L134.08,29.57 L121.88,29.57 C122.69,27.65 126.74,18.23 127.91,15.52 L127.91,15.57 Z" id="Shape"></path>
                <path d="M2.09,7.64 L2.09,7.64 C1.97320944,7.70949354 1.86568774,7.79349486 1.77,7.89 C1.85133466,7.78911309 1.9537198,7.70720498 2.07,7.65 C1.78340862,7.73417637 1.54447684,7.93328618 1.41,8.2 C1.11523046,9.13077185 0.976688338,10.1039458 1,11.08 C0.999255574,11.4149609 1.02601211,11.7494176 1.08,12.08 C1.08,12.08 1.08,12.08 1.08,12.08 L1.08,34.33 C1.08,34.33 1.08,35.27 1.08,35.27 C1.08856122,35.4171323 1.12953868,35.5605534 1.2,35.69 C1.68717081,36.482378 2.62002902,36.8827464 3.53,36.69 C4.40499552,36.5622183 5.09221831,35.8749955 5.22,35 C5.22495769,34.9568085 5.22495769,34.9131915 5.22,34.87 C5.22,34.87 5.22,28.48 5.22,27.01 C6.89896267,26.9969997 8.57298869,26.826249 10.22,26.5 L11.22,26.34 L11.29,26.34 C17.97,24.76 25.35,21.11 26.78,16.55 C27.0734147,15.0183787 26.9027925,13.4340298 26.29,12 C21.93,4.89 11.35,7.45 5,9.19 C4.95,8.9 4.89,8.59 4.89,8.59 C4.89570516,8.53681924 4.89570516,8.48318076 4.89,8.43 C4.66288393,7.81156802 4.11275626,7.36915766 3.46,7.28 C2.97359014,7.21236773 2.48032718,7.34198427 2.09,7.64 Z M20.4,12.48 L22.05,13.66 C22.0766578,13.6944421 22.1000899,13.7312639 22.12,13.77 C22.3715584,14.0652377 22.5222156,14.4331215 22.55,14.82 C22.5474295,15.0076134 22.5136339,15.193489 22.45,15.37 C21,19.24 12.12,22.47 5,22.9 L5,13.67 C10.93,11.51 16.1,11.1 20.4,12.48 Z" id="Shape"></path>
                <path d="M21.87,34.18 C21.8920294,35.3577282 22.8616967,36.2962223 24.039516,36.2797696 C25.2173353,36.2633169 26.1604102,35.2981041 26.1495345,34.1202201 C26.1386589,32.9423361 25.1779223,31.9947016 24,31.9999779 C23.4263181,31.9998419 22.8768269,32.2311025 22.4759055,32.6414352 C22.0749841,33.0517679 21.8565333,33.6064762 21.87,34.18 Z" id="Path"></path>
                <path d="M46,34.18 C46.0219976,35.3538186 46.9855912,36.2907497 48.1595649,36.2798101 C49.3335386,36.2688705 50.279505,35.3141452 50.2796243,34.1401205 C50.2797437,32.9660959 49.3339714,32.0111783 48.16,32 C47.5819775,31.9944962 47.0263129,32.2230624 46.6194586,32.6336838 C46.2126044,33.0443052 45.9891691,33.6020528 46,34.18 Z" id="Path"></path>
                <path d="M224.73,33.67 C224.73,35.0948947 223.574895,36.25 222.15,36.25 C220.725105,36.25 219.57,35.0948947 219.57,33.67 C219.57,32.2451053 220.725105,31.09 222.15,31.09 C223.572618,31.0954822 224.724518,32.2473823 224.73,33.67 L224.73,33.67 Z M219.88,33.67 C219.88,34.5881293 220.433068,35.4158537 221.281309,35.7672065 C222.129549,36.1185594 223.105917,35.9243478 223.755132,35.2751324 C224.404348,34.6259169 224.598559,33.6495495 224.247207,32.8013086 C223.895854,31.9530677 223.068129,31.4 222.15,31.4 C220.898589,31.4054767 219.885477,32.4185892 219.88,33.67 Z M221.21,32.26 L222.21,32.26 C222.42,32.26 223.15,32.26 223.15,32.96 C223.163041,33.2768552 222.948887,33.5581948 222.64,33.63 C222.92,33.7 223.02,33.82 223.06,34.16 C223.083644,34.4579624 223.137248,34.7527845 223.22,35.04 L222.83,35.04 C222.7577,34.8022896 222.710772,34.5575924 222.69,34.31 C222.69,33.89 222.54,33.78 222.09,33.78 L221.61,33.78 L221.61,35 L221.23,35 L221.21,32.26 Z M221.59,33.45 L222.19,33.45 C222.38,33.45 222.74,33.45 222.74,33.03 C222.74,32.61 222.4,32.59 222.19,32.59 L221.59,32.59 L221.59,33.45 Z" id="Shape"></path>
            </g>
        </g>
    </g>
</svg>