<?xml version="1.0" encoding="utf-8"?>
<!-- Generator: Adobe Illustrator 24.0.0, SVG Export Plug-In . SVG Version: 6.00 Build 0)  -->
<svg version="1.1" id="Layer_1" xmlns="http://www.w3.org/2000/svg" xmlns:xlink="http://www.w3.org/1999/xlink" x="0px" y="0px"
	 viewBox="0 0 100 35" style="enable-background:new 0 0 100 35;" xml:space="preserve">
<g>
	<path style="fill:#222146;" d="M14.45,23.77v-5.71c0-2.16-1.37-3.61-3.59-3.63c-1.28-0.08-2.51,0.54-3.2,1.62
		c-0.63-1.05-1.79-1.67-3.01-1.62c-1.07-0.05-2.08,0.46-2.67,1.36v-1.14H0v9.13h2v-5.05c0-1.58,0.88-2.42,2.23-2.42
		s1.98,0.86,1.98,2.4v5.07h1.99v-5.05c0-1.58,0.91-2.42,2.23-2.42s2,0.86,2,2.4v5.07H14.45z"/>
	<path style="fill:#222146;" d="M44.1,14.66h-3.24v-2.77h-2v2.77H37v1.81h1.85v4.16c0,2.12,0.82,3.38,3.16,3.38
		c0.88,0,1.74-0.24,2.48-0.7l-0.57-1.7c-0.53,0.32-1.14,0.49-1.76,0.51c-0.99,0-1.32-0.61-1.32-1.52v-4.12h3.24L44.1,14.66z"/>
	<path style="fill:#222146;" d="M61.02,14.43c-0.99-0.03-1.91,0.48-2.4,1.34v-1.11h-1.97v9.12h1.98v-5.11
		c0-1.52,0.65-2.35,1.95-2.35c0.42-0.01,0.85,0.07,1.24,0.23l0.61-1.87C61.98,14.51,61.5,14.43,61.02,14.43z"/>
	<path style="fill:#222146;" d="M35.44,15.38c-1.12-0.67-2.42-1-3.72-0.95c-2.31,0-3.81,1.11-3.81,2.92c0,1.49,1.1,2.4,3.15,2.69
		l0.93,0.13c1.09,0.15,1.6,0.44,1.6,0.95c0,0.7-0.72,1.11-2.08,1.11c-1.09,0.03-2.17-0.3-3.05-0.95l-0.9,1.54
		c1.16,0.81,2.54,1.22,3.95,1.18c2.63,0,4.16-1.24,4.16-2.97c0-1.6-1.2-2.44-3.18-2.73l-0.93-0.13c-0.86-0.11-1.55-0.29-1.55-0.9
		c0-0.67,0.65-1.07,1.74-1.07c1,0.01,1.98,0.28,2.84,0.78L35.44,15.38z"/>
	<path style="fill:#222146;" d="M88.57,14.43c-0.99-0.03-1.91,0.48-2.4,1.34v-1.11h-1.97v9.12h1.98v-5.11
		c0-1.52,0.65-2.35,1.95-2.35c0.42-0.01,0.85,0.07,1.24,0.23l0.61-1.87C89.53,14.51,89.06,14.43,88.57,14.43z"/>
	<path style="fill:#222146;" d="M63.02,19.21c0,2.77,1.93,4.79,4.86,4.79c1.19,0.06,2.36-0.33,3.28-1.09l-0.95-1.6
		c-0.69,0.52-1.52,0.81-2.38,0.82c-1.58,0-2.75-1.17-2.75-2.92s1.17-2.9,2.75-2.92c0.86,0.01,1.7,0.3,2.38,0.82l0.95-1.6
		c-0.92-0.76-2.09-1.15-3.28-1.09C64.95,14.42,63.02,16.44,63.02,19.21L63.02,19.21z"/>
	<path style="fill:#222146;" d="M79.62,14.64v1.11c-0.69-0.89-1.76-1.38-2.88-1.34c-2.56,0-4.57,2-4.57,4.79s2,4.79,4.57,4.79
		c1.12,0.05,2.19-0.45,2.88-1.34v1.1h1.98v-4.54v-4.57H79.62z M76.98,22.13c-1.72,0-2.77-1.32-2.77-2.92c0-1.6,1.05-2.92,2.77-2.92
		c1.64,0,2.75,1.26,2.75,2.92C79.73,20.87,78.63,22.13,76.98,22.13z"/>
	<path style="fill:#222146;" d="M54.6,19.21c0-2.84-1.77-4.79-4.33-4.79l0.01,0c-2.67,0-4.54,1.95-4.54,4.79
		c0,2.9,1.95,4.79,4.67,4.79c1.36,0.05,2.69-0.41,3.74-1.28l-0.97-1.47c-0.76,0.61-1.7,0.94-2.67,0.95c-1.28,0-2.44-0.59-2.73-2.23
		h6.77C54.58,19.73,54.6,19.48,54.6,19.21z M47.82,18.42c0.21-1.32,1.01-2.21,2.42-2.21c0,0,0,0,0,0h0c0,0,0,0,0,0
		c1.28,0,2.1,0.8,2.31,2.21H47.82z"/>
	<path style="fill:#222146;" d="M98.02,10.99v4.77c-0.69-0.89-1.76-1.38-2.88-1.34c-2.56,0-4.57,2-4.57,4.79s2,4.79,4.57,4.79
		c1.12,0.05,2.19-0.45,2.88-1.34v1.1H100v-4.55v-8.22H98.02z M95.39,22.13c-1.72,0-2.77-1.32-2.77-2.92c0-1.6,1.05-2.92,2.77-2.92
		c1.64,0,2.75,1.26,2.75,2.92C98.14,20.87,97.03,22.13,95.39,22.13z"/>
	<path style="fill:#222146;" d="M25.64,23.77l-0.01-4.56v-4.57h-1.98v1.11c-0.69-0.88-1.75-1.37-2.87-1.33c-2.56,0-4.57,2-4.57,4.79
		s2,4.79,4.57,4.79c1.12,0.05,2.19-0.45,2.88-1.34v1.1H25.64z M21.02,22.13c-1.72,0-2.77-1.31-2.77-2.92s1.05-2.92,2.77-2.92
		c1.64,0,2.75,1.26,2.75,2.92C23.76,20.87,22.66,22.13,21.02,22.13z"/>
</g>
</svg>
