<?xml version="1.0" encoding="UTF-8"?>
<svg width="88px" height="22px" viewBox="0 0 88 22" version="1.1" xmlns="http://www.w3.org/2000/svg" xmlns:xlink="http://www.w3.org/1999/xlink">
    <!-- Generator: Sketch 55.2 (78181) - https://sketchapp.com -->
    <title>Group 15</title>
    <desc>Created with Sketch.</desc>
    <g id="Page-1" stroke="none" stroke-width="1" fill="none" fill-rule="evenodd">
        <g id="Homepage---usability" transform="translate(-423.000000, -809.000000)" fill="#000E4B">
            <g id="Group-15" transform="translate(423.000000, 809.000000)">
                <path d="M28.2287743,17.2948739 L29.3255759,14.7975811 C30.5108546,15.6646929 32.0853124,16.1155976 33.6420819,16.1155976 C34.7919663,16.1155976 35.5172771,15.6820331 35.5172771,15.0230378 C35.4995888,13.1847386 28.6356418,14.6241622 28.5825767,10.0110913 C28.5648884,7.66989291 30.6877558,5.86629134 33.695147,5.86629134 C35.4819004,5.86629134 37.2686361,6.29984724 38.5423566,7.28835748 L37.5163084,9.83767244 C36.3487357,9.10929921 34.8981141,8.5890252 33.5182458,8.5890252 C32.5806394,8.5890252 31.9614763,9.0225811 31.9614763,9.57753543 C31.9791647,11.381137 38.8961767,10.3926268 38.9669301,14.7975811 C38.9669301,17.1908208 36.8971277,18.8730257 33.9251309,18.8730257 C31.7491807,18.8730257 29.7501494,18.370097 28.2287743,17.2948739" id="Fill-1"></path>
                <path d="M70.3146153,13.8957717 C69.7662056,14.8322614 68.7401574,15.4739339 67.5548787,15.4739339 C65.8035197,15.4739339 64.3882747,14.086548 64.3882747,12.3696472 C64.3882747,10.6527638 65.8035197,9.26537795 67.5548787,9.26537795 C68.7401574,9.26537795 69.7662056,9.90705039 70.3146153,10.8435228 L73.3396948,9.19601732 C72.2074988,7.21897953 70.0315663,5.86629134 67.5548787,5.86629134 C63.8929301,5.86629134 60.9209157,8.77980157 60.9209157,12.3696472 C60.9209157,15.9595102 63.8929301,18.8730257 67.5548787,18.8730257 C70.0492546,18.8730257 72.2074988,17.5376672 73.3396948,15.5432945 L70.3146153,13.8957717 Z" id="Fill-3"></path>
                <polygon id="Fill-4" points="40.4883229 0.472826772 44.2741076 0.472826772 44.2741076 18.6302306 40.4883229 18.6302306"></polygon>
                <polygon id="Fill-5" points="74.8256932 0.472826772 74.8256932 18.6302306 78.6114779 18.6302306 78.6114779 13.1847386 83.1048851 18.6302306 87.9520948 18.6302306 82.2380498 12.161548 87.5275213 6.12641102 82.8925896 6.12641102 78.6114779 11.1383575 78.6114779 0.472826772"></polygon>
                <path d="M55.5252964,13.9304693 C54.9768867,14.8149213 53.8446908,15.4739339 52.5709703,15.4739339 C50.8196112,15.4739339 49.4043663,14.086548 49.4043663,12.3696472 C49.4043663,10.6527638 50.8196112,9.26537795 52.5709703,9.26537795 C53.8446908,9.26537795 54.9768867,9.95907087 55.5252964,10.8608803 L55.5252964,13.9304693 Z M55.5252964,6.12641102 L55.5252964,7.60051496 C54.9061333,6.57732441 53.3670522,5.86629134 51.7572177,5.86629134 C48.4313831,5.86629134 45.8131888,8.74510394 45.8131888,12.3523071 C45.8131888,15.9595102 48.4313831,18.8730257 51.7572177,18.8730257 C53.3670522,18.8730257 54.9061333,18.1619891 55.5252964,17.1387934 L55.5252964,18.6128904 L59.3110811,18.6128904 L59.3110811,6.12642835 L55.5252964,6.12642835 L55.5252964,6.12641102 Z" id="Fill-6"></path>
                <path d="M4.82415647,13.9131291 C4.82415647,15.1791165 3.78041285,16.2023071 2.48900225,16.2023071 C1.19759165,16.2023071 0.153848032,15.1791165 0.153848032,13.9131291 C0.153848032,12.6471244 1.19759165,11.6239339 2.48900225,11.6239339 L4.82415647,11.6239339 L4.82415647,13.9131291 Z" id="Fill-7"></path>
                <path d="M5.99173446,13.9131291 C5.99173446,12.6471244 7.03547631,11.6239339 8.32688514,11.6239339 C9.61829398,11.6239339 10.6620482,12.6471244 10.6620482,13.9131291 L10.6620482,19.6360861 C10.6620482,20.902077 9.61829398,21.9252728 8.32688514,21.9252728 C7.03547631,21.9252728 5.99173446,20.902077 5.99173446,19.6360861 L5.99173446,13.9131291 Z" id="Fill-8"></path>
                <path d="M8.32688514,4.72168504 C7.03547631,4.72168504 5.99173446,3.69849449 5.99173446,2.43250709 C5.99173446,1.16651969 7.03547631,0.143311811 8.32688514,0.143311811 C9.61829398,0.143311811 10.6620482,1.16651969 10.6620482,2.43250709 L10.6620482,4.72168504 L8.32688514,4.72168504 Z" id="Fill-9"></path>
                <path d="M8.32688514,5.8836315 C9.61829398,5.8836315 10.6620482,6.90682205 10.6620482,8.17280945 C10.6620482,9.43879685 9.61829398,10.4620047 8.32688514,10.4620047 L2.47131213,10.4620047 C1.17990153,10.4620047 0.136157912,9.43879685 0.136157912,8.17280945 C0.136157912,6.90682205 1.17990153,5.8836315 2.47131213,5.8836315 L8.32688514,5.8836315 Z" id="Fill-10"></path>
                <path d="M17.6851904,8.17280945 C17.6851904,6.90682205 18.7289269,5.8836315 20.0203534,5.8836315 C21.3117622,5.8836315 22.3554988,6.90682205 22.3554988,8.17280945 C22.3554988,9.43879685 21.3117622,10.4620047 20.0203534,10.4620047 L17.6851904,10.4620047 L17.6851904,8.17280945 Z" id="Fill-11"></path>
                <path d="M16.5176177,8.17280945 C16.5176177,9.43879685 15.4738811,10.4620047 14.1824723,10.4620047 C12.8910458,10.4620047 11.8473092,9.43879685 11.8473092,8.17280945 L11.8473092,2.43250709 C11.8473092,1.16651969 12.8910458,0.143311811 14.1824723,0.143311811 C15.4738811,0.143311811 16.5176177,1.16651969 16.5176177,2.43250709 L16.5176177,8.17280945 Z" id="Fill-12"></path>
                <path d="M14.1824723,17.3469013 C15.4738811,17.3469013 16.5176177,18.370097 16.5176177,19.6360861 C16.5176177,20.902077 15.4738811,21.9252728 14.1824723,21.9252728 C12.8910458,21.9252728 11.8473092,20.902077 11.8473092,19.6360861 L11.8473092,17.3469013 L14.1824723,17.3469013 Z" id="Fill-13"></path>
                <path d="M14.1824723,16.2023071 C12.8910458,16.2023071 11.8473092,15.1791165 11.8473092,13.9131291 C11.8473092,12.6471244 12.8910458,11.6239339 14.1824723,11.6239339 L20.0380418,11.6239339 C21.3294506,11.6239339 22.3731871,12.6471244 22.3731871,13.9131291 C22.3731871,15.1791165 21.3294506,16.2023071 20.0380418,16.2023071 L14.1824723,16.2023071 Z" id="Fill-14"></path>
            </g>
        </g>
    </g>
</svg>