<?xml version="1.0" encoding="UTF-8"?>
<svg width="346px" height="75px" viewBox="0 0 346 75" version="1.1" xmlns="http://www.w3.org/2000/svg" xmlns:xlink="http://www.w3.org/1999/xlink">
    <!-- Generator: Sketch 56.2 (81672) - https://sketch.com -->
    <title>Fill 1</title>
    <desc>Created with Sketch.</desc>
    <g id="homepage" stroke="none" stroke-width="1" fill="none" fill-rule="evenodd">
        <g id="Homepage---usability" transform="translate(-847.000000, -2451.000000)" fill="#000E4B">
            <path d="M978.280046,2498.05192 L978.002315,2498.34123 L977.839015,2498.51058 C977.815175,2498.53763 975.381158,2501.05089 972.987669,2501.9694 C972.02336,2502.33986 970.905286,2502.66798 969.905217,2502.93024 C970.632323,2501.82121 971.122225,2500.56164 971.317709,2499.21975 C971.966145,2494.80009 970.03991,2491.45066 968.495108,2488.76099 C968.050501,2487.98596 967.629733,2487.25445 967.343659,2486.60761 C966.486627,2484.66005 966.100427,2482.39847 966.319751,2482.06212 C966.715487,2481.45997 966.826341,2480.78491 966.595097,2480.37799 C966.493779,2480.19923 966.280415,2479.98871 965.840576,2480.00047 C963.591316,2480.06516 962.408875,2482.34672 962.190743,2483.76859 C962.116841,2484.24019 962.131144,2484.76942 962.206239,2485.33746 C961.102468,2487.47202 959.222721,2490.75913 956.845919,2493.5664 C955.173576,2495.53749 953.641885,2497.09225 952.401038,2498.25655 C952.455868,2494.59781 950.808557,2491.72703 949.449703,2489.36314 C949.005096,2488.58811 948.584328,2487.85777 948.298253,2487.20976 C947.471021,2485.33511 947.384007,2483.46399 947.471021,2482.89712 C947.629554,2481.88688 947.573531,2481.33648 947.279113,2480.99895 C947.076477,2480.76491 946.768947,2480.65436 946.337452,2480.65436 C944.16567,2480.65436 943.263343,2482.57841 943.142954,2484.38014 C943.120306,2484.73649 943.147722,2485.12577 943.200169,2485.53504 C942.824696,2486.27008 942.450415,2487.06863 942.114278,2487.81191 C941.332341,2489.55366 933.653626,2503.05255 930.789306,2502.23166 C928.619908,2501.61305 928.634212,2496.70179 928.970349,2491.48711 C929.231392,2487.42968 929.364894,2485.39274 928.53647,2484.52245 C928.184837,2484.15434 927.674671,2483.98851 926.882006,2483.98851 C925.842602,2483.98851 923.992654,2484.69651 923.307268,2489.43253 C922.477652,2495.14115 919.486982,2503.20779 916.242421,2502.86321 C913.876347,2502.61388 913.631992,2497.00287 914.191029,2491.83993 C914.610605,2487.95774 914.844232,2486.25127 915.051636,2484.7459 L915.116003,2484.27195 C915.220897,2483.49692 915.073092,2482.90536 914.676164,2482.51608 C914.084943,2481.93392 913.109906,2481.96685 912.580668,2482.03977 C910.327832,2482.34672 909.470801,2484.64946 908.87958,2487.09333 C908.293128,2489.50427 906.765014,2499.48554 909.980967,2504.21215 C910.904749,2505.56816 912.145597,2506.37376 913.670135,2506.6078 C916.361619,2507.01825 918.758684,2505.88334 920.795773,2503.23014 C922.38587,2501.15673 923.242901,2498.81401 923.524207,2498.04604 C923.555199,2497.95548 923.58023,2497.88962 923.594534,2497.85434 C923.626717,2497.77672 923.652941,2497.70851 923.675588,2497.645 C923.697044,2497.72732 923.722076,2497.82023 923.757835,2497.93901 C923.788826,2498.04486 923.819818,2498.29419 923.860345,2498.61172 C924.053445,2500.16884 924.505204,2503.80759 926.76996,2505.36588 C927.834396,2506.09739 929.172986,2506.28321 930.749971,2505.9151 C933.255506,2505.3353 936.337958,2502.24695 939.913889,2496.7359 C941.899722,2493.67813 943.473131,2490.72032 944.199045,2489.29022 C944.470816,2490.06878 944.772386,2490.87438 945.0823,2491.69645 C946.282621,2494.88124 947.528236,2498.17305 947.320832,2500.70042 C947.084821,2503.60766 945.135939,2505.26473 943.42426,2505.34941 C941.818667,2505.42703 941.191688,2504.17099 940.731585,2503.25484 C940.625499,2503.04314 940.522989,2502.84204 940.424055,2502.68562 C940.118909,2502.21284 939.556295,2501.9788 938.953155,2502.07171 C938.125923,2502.20343 937.475104,2502.89614 937.210485,2503.92519 C936.999505,2504.74256 937.154462,2505.53288 937.655092,2506.21029 C938.422726,2507.2417 939.894817,2507.87325 941.798404,2507.98262 C944.207389,2508.12258 946.60207,2507.41341 948.540225,2505.99037 C948.698758,2505.87511 948.846563,2505.74574 948.996752,2505.61991 L948.991984,2505.674 L949.1827,2505.5611 C949.294746,2505.49642 951.964774,2503.85345 958.116566,2496.0773 C960.088096,2493.58992 961.696073,2491.29306 963.164588,2488.86213 C963.462582,2489.69714 963.797528,2490.5639 964.139625,2491.4483 C965.332794,2494.50608 966.564106,2497.6697 966.366238,2500.09827 C966.131418,2503.00433 964.183728,2504.66141 962.469666,2504.74609 C960.864073,2504.82253 960.237093,2503.56767 959.778182,2502.65034 C959.669712,2502.43982 959.568394,2502.23754 959.468268,2502.07995 C959.163122,2501.60834 958.600509,2501.37313 957.997369,2501.46957 C957.171329,2501.60129 956.521701,2502.29399 956.255891,2503.32187 C956.044911,2504.14041 956.199868,2504.92838 956.699306,2505.60462 C957.466939,2506.63956 958.937838,2507.26757 960.842617,2507.37813 C961.284841,2507.404 961.727064,2507.38989 962.165712,2507.36048 L962.072737,2507.43222 L962.431522,2507.42282 C962.479201,2507.41929 967.279292,2507.25934 973.212953,2504.72962 C976.101112,2503.49828 978.389708,2501.24141 978.413547,2501.21789 L978.455267,2501.17673 L979,2500.67219 L978.280046,2498.05192 Z M1156.42292,2492.3023 C1158.07572,2485.30716 1160.88434,2483.09691 1162.01256,2482.46967 C1162.79942,2482.03479 1163.58001,2481.8962 1164.20248,2482.0778 C1164.50743,2482.16741 1164.73835,2482.39679 1164.87012,2482.74327 C1165.33446,2483.97503 1164.53755,2486.26175 1162.73918,2488.86028 C1160.65217,2491.86622 1157.78582,2493.91757 1156,2495 C1156.06526,2494.17803 1156.18825,2493.29751 1156.42292,2492.3023 L1156.42292,2492.3023 Z M1192.25864,2502.16701 C1191.88331,2502.10775 1191.38052,2502.44639 1191.20702,2503.60263 C1190.77268,2506.46177 1188.75323,2508.44405 1187.24013,2508.30859 C1186.63819,2508.25175 1186.10825,2507.94939 1185.67273,2507.40635 C1184.59278,2506.07232 1184.10651,2503.32082 1184.4004,2500.22826 C1185.02122,2493.78311 1186.15428,2490.00116 1186.90611,2487.50122 C1187.13626,2486.72597 1187.33809,2486.05835 1187.47972,2485.45846 C1188.11825,2482.78921 1187.84679,2481.31852 1186.57563,2480.54084 C1185.43549,2479.84541 1183.3535,2479.87323 1180.71441,2479.91193 L1180.66602,2479.91193 C1179.03489,2479.93491 1178.67018,2479.69665 1178.51911,2479.43903 C1178.38692,2479.21649 1178.30902,2478.99879 1178.26181,2478.78714 C1178.42823,2477.87642 1178.52737,2477.21486 1178.52973,2476.96087 C1178.52973,2476.94757 1178.52383,2476.94394 1178.52265,2476.93184 C1178.60409,2476.66214 1178.6395,2476.43718 1178.52737,2476.2606 C1178.43295,2476.11547 1178.25355,2476.03322 1177.95966,2476.00299 C1177.45569,2475.95703 1176.32617,2476.44323 1175.30523,2477.33459 C1174.25243,2478.25256 1173.63515,2479.34349 1173.56197,2480.40296 C1173.52302,2480.99801 1173.64341,2481.43825 1173.93258,2481.74666 C1174.15565,2481.98492 1174.4755,2482.13248 1174.86735,2482.22077 C1174.55104,2484.7207 1173.65285,2487.88341 1172.06893,2492.07899 C1170.12148,2497.23487 1164.89643,2504.08641 1160.80561,2503.54094 C1160.07738,2503.44056 1158.98799,2502.88663 1158.1264,2501.62034 C1157.54334,2500.76284 1156.97917,2499.44091 1156.82692,2497.52151 C1158.71535,2496.72812 1161.2789,2495.29371 1164.16584,2492.25799 C1166.51458,2489.78346 1168.64615,2485.57941 1167.97103,2482.65133 C1167.6618,2481.31247 1166.81437,2480.38724 1165.44879,2479.89983 C1163.62056,2479.24552 1161.46892,2479.59626 1159.39519,2480.88674 C1155.68206,2483.198 1152.98986,2487.92695 1152.19554,2493.5388 C1151.5936,2497.79122 1152.39618,2501.55987 1154.3991,2503.8808 C1155.86972,2505.58612 1157.94463,2506.46177 1160.3996,2506.40976 C1167.39506,2506.25858 1171.94146,2498.75636 1174.52743,2492.48778 C1175.69118,2489.66977 1176.77703,2485.60965 1177.52532,2482.33204 C1177.54657,2482.32962 1177.56427,2482.32962 1177.58906,2482.32962 C1178.34797,2482.30906 1179.21193,2482.28487 1180.11365,2482.32115 C1180.90444,2482.35502 1181.53824,2482.41065 1181.86754,2482.79284 C1182.10123,2483.06859 1182.18149,2483.51367 1182.11893,2484.19096 C1182.01625,2485.33994 1181.72,2486.80458 1181.38008,2488.4966 C1181.06495,2490.06042 1180.70733,2491.83226 1180.40046,2493.82786 C1179.84219,2497.47676 1179.32877,2504.13599 1182.18385,2507.71838 C1183.31809,2509.13949 1184.87014,2509.90386 1186.79989,2509.99336 C1190.41978,2510.16268 1192.50413,2507.06649 1192.96798,2503.92313 C1193.11669,2502.91808 1192.72484,2502.23958 1192.25864,2502.16701 L1192.25864,2502.16701 Z M983.011876,2495.94222 C982.83903,2490.35056 984.583103,2486.62197 986.272534,2484.99301 C987.05313,2484.24411 987.860488,2483.89846 988.545182,2484.02593 C989.116131,2484.13134 989.547689,2484.56647 989.793019,2485.28596 C990.329399,2486.85853 989.892266,2489.91176 987.664224,2492.90247 C986.099688,2495.0021 984.322161,2496.28296 983.072094,2497 C983.04533,2496.65925 983.024143,2496.3087 983.011876,2495.94222 L983.011876,2495.94222 Z M1039.66285,2504.49403 C1039.3078,2504.36968 1038.76093,2504.61601 1038.07824,2505.21171 C1036.1493,2506.89577 1033.29939,2507.83255 1031.14884,2507.49384 C1026.07809,2506.69326 1023.30681,2500.7718 1022.1535,2488.29646 C1022.29051,2487.77064 1022.3203,2487.33718 1022.3477,2486.92031 C1022.36676,2486.56858 1022.39178,2486.205 1022.48233,2485.78221 C1023.53199,2480.87805 1024.32787,2476.37774 1024.84733,2472.40444 C1026.12694,2462.64587 1026.14719,2458.05437 1024.91644,2456.55861 C1024.63526,2456.2199 1024.28379,2456.03278 1023.86917,2456.00318 C1023.47957,2455.97594 1023.09473,2456.12397 1022.72896,2456.44255 C1020.302,2458.54348 1018.60778,2468.3589 1018.00491,2477.15582 C1017.67846,2481.938 1017.67846,2486.85873 1018.00134,2490.66031 C1016.41673,2496.26912 1012.86029,2504.06176 1009.89838,2503.8628 C1005.96783,2503.59752 1004.82643,2494.05449 1004.56193,2486.09486 C1004.55836,2486.00367 1004.55836,2485.91722 1004.55717,2485.8284 C1004.55717,2485.76681 1004.55717,2485.70286 1004.55478,2485.63654 C1007.09135,2476.4488 1008.52346,2466.31007 1008.726,2462.923 C1008.79749,2461.08734 1008.87613,2459.01128 1007.95157,2458.05674 C1007.61559,2457.70856 1007.16046,2457.53328 1006.60048,2457.53328 C1004.89434,2457.53684 1002.5353,2463.73897 1001.34148,2471.36345 C1000.04758,2479.61678 1000.12264,2484.98992 1000.17268,2488.54398 L1000.17745,2488.90045 C998.241362,2494.51873 993.325494,2502.53758 988.435838,2502.80167 C987.572046,2502.85141 986.316272,2502.69983 985.232065,2501.71568 C984.402825,2500.96247 983.801149,2499.83858 983.424655,2498.37597 C984.992586,2497.68316 987.455285,2496.33425 989.842925,2493.94317 C992.794113,2490.98954 994.179754,2486.69767 993.137247,2483.73694 C992.527231,2482.01024 991.143973,2480.93727 989.237675,2480.71936 C986.92033,2480.45526 984.711407,2481.1836 982.849191,2482.82858 C979.871791,2485.46008 978.01315,2490.23752 978,2495.30155 C977.986938,2501.47171 980.914298,2505.6274 985.64311,2506.14612 C989.250781,2506.54404 992.524849,2505.13591 995.374765,2501.96438 C997.569392,2499.52474 999.131365,2496.53677 1000.48126,2493.63525 C1000.78389,2496.27267 1001.41654,2499.84687 1002.75691,2502.70812 C1004.22714,2505.84886 1006.20731,2507.42278 1008.64618,2507.39081 C1012.3575,2507.33633 1015.64349,2503.47672 1018.68284,2495.60947 C1020.06848,2502.85497 1022.25596,2507.99598 1028.21672,2509.58767 C1031.60636,2510.49484 1035.8026,2509.86124 1037.98531,2508.11796 C1039.43886,2506.95262 1040.10368,2505.60134 1039.98692,2504.92037 C1039.94999,2504.7072 1039.83442,2504.55561 1039.66285,2504.49403 L1039.66285,2504.49403 Z M936.792891,2520.6893 L935.845852,2521.07274 C933.855163,2521.86111 928.48543,2523.49399 921.614033,2521.63176 C914.791538,2519.78506 908.80635,2515.23878 900.958095,2505.94794 C898.176617,2502.65828 895.407066,2498.96726 892.963134,2495.70747 C890.766099,2492.77735 888.773024,2490.11719 887.199795,2488.32663 C889.852458,2488.03278 893.663274,2487.03657 897.288023,2484.97605 C900.794689,2482.98243 905.296105,2479.28544 906.820431,2473.0131 C908.188508,2467.37624 906.895574,2462.04757 903.176599,2458.01851 C897.720989,2452.09974 887.977464,2449.76808 876.44721,2451.62314 C866.153831,2453.27633 859.371889,2458.25263 855.493087,2462.13476 C851.119295,2466.51501 848.012197,2471.92849 847.180855,2476.61334 C846.555857,2480.13951 847.572075,2483.23924 849.899118,2484.89841 C850.592102,2485.39413 851.218293,2485.29259 851.574923,2485.03339 C851.962565,2484.75148 852.114043,2484.25815 851.962565,2483.78035 C851.400782,2482.00891 851.250497,2479.72979 851.539141,2477.35632 C852.024587,2473.36907 853.822052,2469.00196 856.344706,2465.67885 C861.521214,2458.86183 871.808629,2454.10054 881.358929,2454.10054 C887.955995,2454.10054 893.399678,2456.15986 896.684494,2459.89985 C899.437347,2463.03064 900.565683,2467.2329 899.950227,2472.05033 C899.110535,2478.6201 895.726721,2482.17494 893.037084,2484.00014 C890.044489,2486.0308 886.731047,2486.68658 885.13277,2486.27328 C885.104145,2486.26611 885.057628,2486.26611 885.01946,2486.26492 C882.923809,2484.81718 880.82458,2484.8578 879.625872,2485.37263 C878.962707,2485.65692 878.552403,2486.08216 878.502307,2486.53846 C878.435514,2487.13452 878.912611,2487.55976 879.777351,2488.32783 C880.846049,2489.28582 882.462217,2490.72639 884.573374,2493.66606 C885.448847,2494.88326 886.387537,2496.23902 887.382285,2497.67242 C890.09697,2501.58562 893.174249,2506.022 896.614122,2510.1299 C901.546118,2516.02596 907.161556,2520.57941 912.423942,2522.95169 C918.277928,2525.59035 923.987593,2526.52087 929.393108,2525.72413 C933.446051,2525.12569 936.22753,2523.66242 937.132823,2522.9708 C938.652378,2521.80975 939.23563,2520.9724 938.914782,2520.40859 C938.639258,2519.9296 938.100138,2520.14939 936.792891,2520.6893 L936.792891,2520.6893 Z M871.268221,2460.00701 C870.531607,2459.95563 869.943721,2460.18742 869.568974,2460.67728 C869.002167,2461.41805 868.970548,2462.65584 869.481142,2464.26163 C870.188479,2466.49826 871.336144,2475.57859 870.909868,2487.3914 C870.443776,2500.4396 868.156643,2512.55229 868.059442,2513.06247 C867.836936,2514.22618 868.276094,2514.80087 868.763266,2514.9538 C869.61933,2515.21785 871.001213,2514.35522 871.872502,2512.2309 C873.01314,2509.46498 875.833118,2501.08956 877.433994,2483.17382 C877.930535,2477.6157 878.459866,2469.68235 877.319227,2464.96535 C876.531086,2461.69046 874.779139,2460.25433 871.268221,2460.00701 L871.268221,2460.00701 Z M1117.13703,2503.44869 C1116.22105,2504.47752 1115.17218,2505 1114.02246,2505 C1111.01943,2505 1109,2501.63675 1109,2496.63036 C1109,2494.85193 1109.22425,2493.46692 1109.52325,2492.39589 C1109.59681,2492.46788 1109.66919,2492.54482 1109.74631,2492.61432 C1111.11197,2493.80076 1113.07207,2494.30091 1115.26473,2494.02912 C1116.8226,2493.83675 1118.43743,2493.03628 1119.97276,2492 C1120.18752,2496.87733 1119.12204,2501.21976 1117.13703,2503.44869 L1117.13703,2503.44869 Z M1111.13029,2486.793 C1111.52657,2485.15583 1113.17482,2483.69119 1115.55505,2484.05645 C1116.65808,2484.2266 1119.0421,2485.06659 1120,2489.03339 C1118.65213,2489.92931 1117.37998,2490.63843 1116.52052,2490.80857 C1114.42299,2491.22262 1112.81387,2490.96206 1111.86985,2490.05543 C1111.07981,2489.29753 1110.81351,2488.10891 1111.13029,2486.793 L1111.13029,2486.793 Z M1149.87395,2476.83628 C1149.34087,2476.38471 1148.64715,2476.23379 1148.0165,2476.43344 C1147.21331,2476.69131 1147.24901,2477.21418 1147.32754,2478.36449 C1147.38109,2479.19752 1147.45724,2480.33357 1147.30374,2482.01745 C1146.59812,2489.74998 1141.88489,2502.17645 1140.47127,2502.24062 C1139.2647,2502.2941 1138.85061,2500.01011 1137.74638,2493.90204 L1137.74162,2493.87827 C1137.25851,2491.195 1136.71115,2488.14809 1136.09597,2485.7013 C1135.3023,2482.56171 1134.36822,2481.14283 1132.87488,2480.79821 C1129.96793,2480.12799 1127.70591,2482.15411 1125.70923,2483.94137 C1125.32132,2484.29193 1124.68829,2484.84926 1123.9327,2485.48978 C1123.47696,2484.57713 1122.9177,2483.75955 1122.2335,2483.06081 C1119.72636,2480.51182 1116.49694,2480.31218 1115.56643,2480.31218 C1113.55191,2480.31218 1111.42435,2481.24859 1110.0155,2482.75303 C1109.43006,2483.37453 1108.99693,2484.07684 1108.6947,2484.83738 C1108.20921,2485.25924 1107.59522,2485.86648 1106.97527,2486.70188 C1105.76751,2488.33348 1104.33367,2491.15578 1104.36818,2495.32211 C1103.65423,2497.59778 1101.34699,2503.41589 1098.28178,2503.66901 C1097.62257,2503.72486 1097.01572,2503.49908 1096.48145,2502.99997 C1094.5288,2501.18062 1093.4793,2495.63702 1093.60305,2487.78922 C1093.67445,2483.10478 1093.91124,2479.535 1094.20872,2476.71864 C1094.67992,2476.72933 1095.15589,2476.74122 1095.66398,2476.75666 C1111.50646,2477.28429 1115.09285,2475.03595 1116.51122,2472.76741 C1117.02645,2471.94389 1117.14187,2471.30099 1116.81941,2471.04431 C1116.59452,2470.86606 1116.22326,2470.95281 1115.91865,2471.25821 L1115.7592,2471.41626 C1114.2135,2472.98487 1112.10974,2475.11319 1094.52761,2474.10667 C1094.71443,2472.7781 1094.90839,2471.65037 1095.09639,2470.67474 C1095.6378,2467.82629 1095.5557,2467.66824 1094.95598,2467.2036 C1094.67635,2466.98375 1094.30748,2466.94097 1093.88863,2467.08001 C1092.67968,2467.48404 1090.97216,2469.49353 1089.77749,2473.91297 C1083.985,2473.95575 1081.6849,2475.42216 1079.9988,2476.84341 C1079.0314,2477.6598 1078.82793,2478.51184 1079.12778,2478.9337 C1079.43359,2479.36388 1080.15706,2479.29971 1081.06258,2478.76377 C1082.53212,2477.88915 1084.43003,2477.05018 1089.16349,2476.78756 C1088.32699,2481.69897 1088.23298,2487.45767 1088.22465,2488.21464 C1088.18777,2491.63231 1088.26987,2496.03392 1089.23132,2499.76769 C1090.41647,2504.3523 1092.66897,2506.78008 1095.92933,2506.98448 C1100.42362,2507.2673 1103.38769,2503.63336 1105.09283,2500.31432 C1105.64376,2502.08852 1106.49931,2503.56681 1107.65947,2504.66959 C1109.3194,2506.2489 1111.56476,2507.02726 1114.15401,2506.92387 C1116.89318,2506.81336 1119.61451,2505.40636 1121.62427,2503.06533 C1123.92675,2500.38325 1125.18924,2496.68751 1125.27016,2492.38215 C1125.29753,2490.78383 1125.15117,2489.34 1124.84655,2488.03758 C1125.29515,2487.63473 1125.71637,2487.24971 1126.09358,2486.89915 C1127.04788,2486.02097 1127.79634,2485.32816 1128.20448,2485.12139 C1128.69472,2484.86709 1129.11833,2484.82074 1129.50267,2484.98117 C1130.12024,2485.24023 1130.63071,2486.03285 1131.05551,2487.40895 C1131.39344,2488.47608 1131.84204,2490.42258 1132.36441,2492.67924 C1133.1319,2495.99946 1134.00411,2499.76293 1134.86441,2502.33807 C1135.75208,2504.97856 1136.66594,2506.53291 1138.72805,2506.67076 C1143.11763,2506.96784 1149.16357,2493.10704 1150.84849,2481.9711 C1151.32683,2478.82081 1150.58195,2477.43996 1149.87395,2476.83628 L1149.87395,2476.83628 Z M1070.30876,2478.43227 C1069.39088,2477.90682 1068.44206,2477.36002 1067.5349,2476.81204 L1065.13485,2475.39108 C1058.95021,2471.76157 1054.0656,2468.89474 1054.8668,2462.6807 C1055.53586,2457.49147 1060.66453,2454.68513 1065.38486,2454.59261 C1068.67063,2454.52975 1071.42783,2455.44661 1072.95047,2457.11072 C1073.86597,2458.11062 1074.27193,2459.33824 1074.12192,2460.65957 C1073.81835,2463.35797 1071.89926,2464.2357 1071.26949,2464.52273 C1070.90282,2464.68879 1070.504,2464.89755 1070.40757,2465.24982 C1070.3409,2465.48823 1070.41947,2465.75985 1070.64329,2466.08247 C1071.03258,2466.64469 1073.02905,2467.77387 1075.21361,2466.98985 C1077.35174,2466.22243 1079.42321,2463.92612 1078.8363,2459.77592 C1078.52915,2457.61482 1077.16126,2455.65774 1074.98622,2454.26168 C1072.60404,2452.73397 1069.39445,2451.95351 1065.70629,2452.00214 C1061.64193,2452.05433 1057.52638,2453.33652 1054.41322,2455.5154 C1051.97866,2457.22103 1049.00241,2460.26459 1048.65955,2465.08495 C1048.09525,2472.9892 1055.30134,2477.02316 1061.66098,2480.58387 C1062.5848,2481.10102 1063.45744,2481.58969 1064.30269,2482.08786 C1072.04093,2486.64253 1076.73983,2489.93399 1076.73983,2497.22858 C1076.73983,2500.82487 1075.0017,2504.1353 1071.84807,2506.55141 C1068.83254,2508.86314 1064.78485,2510.21412 1060.44905,2510.35883 C1056.7716,2510.48219 1051.8227,2509.62107 1048.95717,2506.83371 C1047.39167,2505.31311 1046.61189,2503.3667 1046.63213,2501.05378 C1046.70475,2493.97151 1053.67393,2491.56608 1055.07157,2491.15331 C1055.59658,2490.99793 1056.0823,2490.90304 1056.47279,2490.82594 C1057.24066,2490.67175 1057.75019,2490.56974 1057.80257,2490.17833 C1057.83353,2489.94704 1057.75138,2489.72879 1057.56447,2489.54613 C1056.89779,2488.88784 1054.87633,2488.64943 1052.64772,2488.96612 C1051.06078,2489.19148 1048.41668,2490.09767 1046.18807,2491.90768 C1043.38207,2494.18739 1041.93442,2497.346 1042.00228,2501.0443 C1042.16062,2509.48111 1051.16555,2513.12484 1060.02404,2512.99674 C1070.93139,2512.8378 1082.50303,2505.90142 1082.98518,2494.56457 C1083.35543,2485.92612 1076.72316,2482.11633 1070.30876,2478.43227 L1070.30876,2478.43227 Z" id="Fill-1"></path>
        </g>
    </g>
</svg>